<?xml version="1.0" encoding="UTF-8"?>
<svg xmlns="http://www.w3.org/2000/svg" width="255.12" height="170.08" viewBox="0 0 255.12 170.08">
  <rect x="0" y="0" width="255.12" height="170.08" fill="#2266AA" rx="5.67" />
  <rect x="11.34" y="13.46" width="238.11" height="7.09" fill="#FF8800" />
  <rect x="11.34" y="149.53" width="238.11" height="7.09" fill="#FF8800" />
  <rect x="22.68" y="36.85" width="22.68" height="5.67" fill="#FFD700" />
  <rect x="62.36" y="17.01" width="5.67" height="22.68" fill="#FF8800" />
  <rect x="19.84" y="53.86" width="5.67" height="99.21" fill="#FF8800" />
  <rect x="68.03" y="59.53" width="17.01" height="5.67" fill="#FFD700" />
  <rect x="104.88" y="59.53" width="25.51" height="5.67" fill="#FFD700" />
  <rect x="107.72" y="76.54" width="22.68" height="5.67" fill="#FF8800" />
  <rect x="104.88" y="79.37" width="5.67" height="73.7" fill="#FF8800" />
  <rect x="113.39" y="36.85" width="28.35" height="5.67" fill="#FFD700" />
  <rect x="141.73" y="36.85" width="17.01" height="5.67" fill="#FFD700" />
  <rect x="158.74" y="36.85" width="39.69" height="5.67" fill="#FFD700" />
  <rect x="195.59" y="39.69" width="5.67" height="2.83" fill="#FFD700" />
  <rect x="198.43" y="39.69" width="34.02" height="5.67" fill="#FFD700" />
  <rect x="138.9" y="17.01" width="5.67" height="5.67" fill="#FF8800" />
  <rect x="155.91" y="17.01" width="5.67" height="5.67" fill="#FF8800" />
  <rect x="229.61" y="17.01" width="5.67" height="11.34" fill="#FF8800" />
  <rect x="232.44" y="53.86" width="17.01" height="5.67" fill="#FF8800" />
  <rect x="246.61" y="17.01" width="5.67" height="39.69" fill="#FF8800" />
  <rect x="232.44" y="68.03" width="14.17" height="5.67" fill="#FF8800" />
  <rect x="243.78" y="70.87" width="5.67" height="82.2" fill="#FF8800" />
  <rect x="198.43" y="82.2" width="34.02" height="5.67" fill="#FFD700" />
  <rect x="198.43" y="96.38" width="34.02" height="5.67" fill="#FFD700" />
  <rect x="36.85" y="116.22" width="8.5" height="5.67" fill="#FFD700" />
  <rect x="65.2" y="116.22" width="11.34" height="5.67" fill="#FFD700" />
  <rect x="93.54" y="119.06" width="5.67" height="34.02" fill="#FFD700" />
  <rect x="124.72" y="121.89" width="28.35" height="5.67" fill="#FFD700" />
  <rect x="150.24" y="124.72" width="5.67" height="2.83" fill="#FFD700" />
  <rect x="124.72" y="136.06" width="42.52" height="5.67" fill="#FFD700" />
  <rect x="164.41" y="127.56" width="5.67" height="11.34" fill="#FFD700" />
  <rect x="141.73" y="104.88" width="39.69" height="5.67" fill="#FFD700" />
  <rect x="178.58" y="107.72" width="5.67" height="19.84" fill="#FFD700" />
  <rect x="192.76" y="127.56" width="5.67" height="25.51" fill="#FF8800" />
  <circle cx="22.68" cy="39.69" r="4.96" fill="#FFD700" />
  <circle cx="22.68" cy="39.69" r="1.84" fill="#000000" />
  <circle cx="22.68" cy="53.86" r="4.96" fill="#FFD700" />
  <circle cx="22.68" cy="53.86" r="1.84" fill="#000000" />
  <circle cx="45.35" cy="39.69" r="3.97" fill="#FFD700" />
  <circle cx="45.35" cy="39.69" r="1.42" fill="#000000" />
  <circle cx="65.2" cy="39.69" r="3.97" fill="#FFD700" />
  <circle cx="65.2" cy="39.69" r="1.42" fill="#000000" />
  <circle cx="85.04" cy="62.36" r="3.97" fill="#FFD700" />
  <circle cx="85.04" cy="62.36" r="1.42" fill="#000000" />
  <circle cx="104.88" cy="62.36" r="3.97" fill="#FFD700" />
  <circle cx="104.88" cy="62.36" r="1.42" fill="#000000" />
  <circle cx="107.72" cy="62.36" r="3.97" fill="#FFD700" />
  <circle cx="107.72" cy="62.36" r="1.42" fill="#000000" />
  <circle cx="107.72" cy="79.37" r="3.97" fill="#FFD700" />
  <circle cx="107.72" cy="79.37" r="1.42" fill="#000000" />
  <circle cx="130.39" cy="62.36" r="4.96" fill="#FFD700" />
  <circle cx="130.39" cy="62.36" r="1.84" fill="#000000" />
  <circle cx="113.39" cy="39.69" r="4.96" fill="#FFD700" />
  <circle cx="113.39" cy="39.69" r="1.84" fill="#000000" />
  <circle cx="130.39" cy="79.37" r="4.96" fill="#FFD700" />
  <circle cx="130.39" cy="79.37" r="1.84" fill="#000000" />
  <circle cx="141.73" cy="22.68" r="3.97" fill="#FFD700" />
  <circle cx="141.73" cy="22.68" r="1.42" fill="#000000" />
  <circle cx="141.73" cy="39.69" r="3.97" fill="#FFD700" />
  <circle cx="141.73" cy="39.69" r="1.42" fill="#000000" />
  <circle cx="158.74" cy="22.68" r="3.97" fill="#FFD700" />
  <circle cx="158.74" cy="22.68" r="1.42" fill="#000000" />
  <circle cx="158.74" cy="39.69" r="3.97" fill="#FFD700" />
  <circle cx="158.74" cy="39.69" r="1.42" fill="#000000" />
  <circle cx="232.44" cy="28.35" r="4.96" fill="#FFD700" />
  <circle cx="232.44" cy="28.35" r="1.84" fill="#000000" />
  <circle cx="232.44" cy="42.52" r="4.96" fill="#FFD700" />
  <circle cx="232.44" cy="42.52" r="1.84" fill="#000000" />
  <circle cx="232.44" cy="56.69" r="4.96" fill="#FFD700" />
  <circle cx="232.44" cy="56.69" r="1.84" fill="#000000" />
  <circle cx="232.44" cy="70.87" r="4.96" fill="#FFD700" />
  <circle cx="232.44" cy="70.87" r="1.84" fill="#000000" />
  <circle cx="232.44" cy="85.04" r="4.96" fill="#FFD700" />
  <circle cx="232.44" cy="85.04" r="1.84" fill="#000000" />
  <circle cx="232.44" cy="99.21" r="4.96" fill="#FFD700" />
  <circle cx="232.44" cy="99.21" r="1.84" fill="#000000" />
  <circle cx="45.35" cy="119.06" r="3.97" fill="#FFD700" />
  <circle cx="45.35" cy="119.06" r="1.42" fill="#000000" />
  <circle cx="65.2" cy="119.06" r="3.97" fill="#FFD700" />
  <circle cx="65.2" cy="119.06" r="1.42" fill="#000000" />
  <circle cx="76.54" cy="119.06" r="3.97" fill="#FFD700" />
  <circle cx="76.54" cy="119.06" r="1.42" fill="#000000" />
  <circle cx="96.38" cy="119.06" r="3.97" fill="#FFD700" />
  <circle cx="96.38" cy="119.06" r="1.42" fill="#000000" />
  <circle cx="153.07" cy="127.56" r="3.97" fill="#FFD700" />
  <circle cx="153.07" cy="127.56" r="1.42" fill="#000000" />
  <circle cx="167.24" cy="127.56" r="3.97" fill="#FFD700" />
  <circle cx="167.24" cy="127.56" r="1.42" fill="#000000" />
  <circle cx="181.42" cy="127.56" r="3.97" fill="#FFD700" />
  <circle cx="181.42" cy="127.56" r="1.42" fill="#000000" />
  <circle cx="195.59" cy="127.56" r="3.97" fill="#FFD700" />
  <circle cx="195.59" cy="127.56" r="1.42" fill="#000000" />
  <circle cx="11.34" cy="17.01" r="4.96" fill="#FFD700" />
  <circle cx="11.34" cy="17.01" r="1.84" fill="#000000" />
  <circle cx="11.34" cy="153.07" r="4.96" fill="#FFD700" />
  <circle cx="11.34" cy="153.07" r="1.84" fill="#000000" />
  <circle cx="141.73" cy="107.72" r="4.96" fill="#FFD700" />
  <circle cx="141.73" cy="107.72" r="1.84" fill="#000000" />
  <circle cx="68.03" cy="62.36" r="4.96" fill="#FFD700" />
  <circle cx="68.03" cy="62.36" r="1.84" fill="#000000" />
  <circle cx="198.43" cy="85.04" r="4.96" fill="#FFD700" />
  <circle cx="198.43" cy="85.04" r="1.84" fill="#000000" />
  <circle cx="198.43" cy="99.21" r="4.96" fill="#FFD700" />
  <circle cx="198.43" cy="99.21" r="1.84" fill="#000000" />
  <circle cx="36.85" cy="119.06" r="4.96" fill="#FFD700" />
  <circle cx="36.85" cy="119.06" r="1.84" fill="#000000" />
  <circle cx="124.72" cy="124.72" r="4.96" fill="#FFD700" />
  <circle cx="124.72" cy="124.72" r="1.84" fill="#000000" />
  <circle cx="124.72" cy="138.9" r="4.96" fill="#FFD700" />
  <circle cx="124.72" cy="138.9" r="1.84" fill="#000000" />
  <circle cx="11.34" cy="11.34" r="4.54" fill="#000000" />
  <circle cx="243.78" cy="11.34" r="4.54" fill="#000000" />
  <circle cx="11.34" cy="158.74" r="4.54" fill="#000000" />
  <circle cx="243.78" cy="158.74" r="4.54" fill="#000000" />
</svg>
